<svg width="72" height="210" viewBox="0 0 72 210" fill="none" xmlns="http://www.w3.org/2000/svg">
<path d="M70 175C70 194.33 54.33 210 35 210C15.67 210 0 194.33 0 175C0 155.67 15.67 140 35 140C54.33 140 70 155.67 70 175Z" fill="url(#paint0_linear_1511_12821)"/>
<path d="M28.1007 181.89C28.7807 181.35 29.0907 181.1 29.0307 181.14C30.9907 179.52 32.5307 178.19 33.6507 177.15C34.7907 176.11 35.7507 175.02 36.5307 173.88C37.3107 172.74 37.7007 171.63 37.7007 170.55C37.7007 169.73 37.5107 169.09 37.1307 168.63C36.7507 168.17 36.1807 167.94 35.4207 167.94C34.6607 167.94 34.0607 168.23 33.6207 168.81C33.2007 169.37 32.9907 170.17 32.9907 171.21H28.0407C28.0807 169.51 28.4407 168.09 29.1207 166.95C29.8207 165.81 30.7307 164.97 31.8507 164.43C32.9907 163.89 34.2507 163.62 35.6307 163.62C38.0107 163.62 39.8007 164.23 41.0007 165.45C42.2207 166.67 42.8307 168.26 42.8307 170.22C42.8307 172.36 42.1007 174.35 40.6407 176.19C39.1807 178.01 37.3207 179.79 35.0607 181.53H43.1607V185.7H28.1007V181.89Z" fill="white"/>
<line x1="36" x2="36" y2="140" stroke="url(#paint1_linear_1511_12821)" stroke-width="2"/>
<defs>
<linearGradient id="paint0_linear_1511_12821" x1="0" y1="140" x2="70" y2="140" gradientUnits="userSpaceOnUse">
<stop stop-color="#AB40FF"/>
<stop offset="1" stop-color="#51C6FF"/>
</linearGradient>
<linearGradient id="paint1_linear_1511_12821" x1="-5" y1="69.9999" x2="74.5" y2="69.9999" gradientUnits="userSpaceOnUse">
<stop stop-color="#AB40FF"/>
<stop offset="1" stop-color="#51C0FF"/>
</linearGradient>
</defs>
</svg>
