<svg width="70" height="210" viewBox="0 0 70 210" fill="none" xmlns="http://www.w3.org/2000/svg">
<path d="M70 175C70 194.33 54.33 210 35 210C15.67 210 0 194.33 0 175C0 155.67 15.67 140 35 140C54.33 140 70 155.67 70 175Z" fill="url(#paint0_linear_1512_12830)"/>
<path d="M27.948 170.28C28.028 168.14 28.728 166.49 30.048 165.33C31.368 164.17 33.158 163.59 35.418 163.59C36.918 163.59 38.198 163.85 39.258 164.37C40.338 164.89 41.148 165.6 41.688 166.5C42.248 167.4 42.528 168.41 42.528 169.53C42.528 170.85 42.198 171.93 41.538 172.77C40.878 173.59 40.108 174.15 39.228 174.45V174.57C40.368 174.95 41.268 175.58 41.928 176.46C42.588 177.34 42.918 178.47 42.918 179.85C42.918 181.09 42.628 182.19 42.048 183.15C41.488 184.09 40.658 184.83 39.558 185.37C38.478 185.91 37.188 186.18 35.688 186.18C33.288 186.18 31.368 185.59 29.928 184.41C28.508 183.23 27.758 181.45 27.678 179.07H32.658C32.678 179.95 32.928 180.65 33.408 181.17C33.888 181.67 34.588 181.92 35.508 181.92C36.288 181.92 36.888 181.7 37.308 181.26C37.748 180.8 37.968 180.2 37.968 179.46C37.968 178.5 37.658 177.81 37.038 177.39C36.438 176.95 35.468 176.73 34.128 176.73H33.168V172.56H34.128C35.148 172.56 35.968 172.39 36.588 172.05C37.228 171.69 37.548 171.06 37.548 170.16C37.548 169.44 37.348 168.88 36.948 168.48C36.548 168.08 35.998 167.88 35.298 167.88C34.538 167.88 33.968 168.11 33.588 168.57C33.228 169.03 33.018 169.6 32.958 170.28H27.948Z" fill="white"/>
<line x1="36" x2="36" y2="140" stroke="url(#paint1_linear_1512_12830)" stroke-width="2"/>
<defs>
<linearGradient id="paint0_linear_1512_12830" x1="0" y1="140" x2="70" y2="140" gradientUnits="userSpaceOnUse">
<stop stop-color="#AB40FF"/>
<stop offset="1" stop-color="#51C6FF"/>
</linearGradient>
<linearGradient id="paint1_linear_1512_12830" x1="-5" y1="69.9999" x2="74.5" y2="69.9999" gradientUnits="userSpaceOnUse">
<stop stop-color="#AB40FF"/>
<stop offset="1" stop-color="#51C0FF"/>
</linearGradient>
</defs>
</svg>
