<?xml version="1.0" encoding="utf-8"?>
<!-- Generator: Adobe Illustrator 19.0.0, SVG Export Plug-In . SVG Version: 6.00 Build 0)  -->
<svg version="1.1" id="Layer_1" xmlns="http://www.w3.org/2000/svg" xmlns:xlink="http://www.w3.org/1999/xlink" x="0px" y="0px"
	 viewBox="0 0 512 512" style="enable-background:new 0 0 512 512;" xml:space="preserve">
<g id="XMLID_2_">
	<path id="XMLID_6_" d="M442.2,101.6c0-8.4-2.8-15.8-8.4-21.4c-5.6-5.6-13-8.4-21.4-8.4s-15.8,2.8-21.4,8.4
		c-5.6,5.6-8.4,13-8.4,21.4c0,8.4,2.8,15.8,8.4,21.4c5.6,5.6,13,8.4,21.4,8.4c8.4,0,15.8-2.8,21.4-8.4
		C438.5,117.4,442.2,109.9,442.2,101.6z M512,11.3c0,52.1-7.4,96.8-23.3,134.9s-41.9,75.4-79.1,112.6
		c-16.7,16.7-37.2,35.4-61.4,54.9l-6.5,119.1c0,3.7-1.9,6.5-4.7,8.4l-120,69.8c-1.9,0.9-2.8,0.9-4.7,0.9c-2.8,0-4.7-0.9-7.4-2.8
		l-21.4-19.5c-2.8-2.8-3.7-6.5-2.8-10.2l27-86.5l-88.4-88.4l-85.6,27c-0.9,0-1.9,0-2.8,0c-2.8,0-5.6-0.9-7.4-2.8L3.1,308.1
		c-3.7-3.7-3.7-8.4-1.9-12.1L71,176c1.9-2.8,4.7-4.7,8.4-4.7l119.1-6.5c20.5-24.2,38.1-43.7,54.9-61.4
		c39.1-39.1,76.3-66.1,112.6-80.9C401.3,7.6,446.9,0.1,500.8,0.1c2.8,0,5.6,0.9,7.4,2.8C511.1,5.7,512,8.5,512,11.3z"/>
</g>
</svg>
