<svg width="18" height="18" viewBox="0 0 18 18" fill="none" xmlns="http://www.w3.org/2000/svg">
<path fill-rule="evenodd" clip-rule="evenodd" d="M2.77702 5.79168H15.223C15.7352 6.78347 16.0016 7.88377 16 9C16 10.1565 15.7197 11.2473 15.223 12.2083H2.77702C2.26486 11.2165 1.99838 10.1162 2.00003 9C2.00003 7.84355 2.28032 6.75271 2.77702 5.79168Z" fill="#FFD600"/>
<path fill-rule="evenodd" clip-rule="evenodd" d="M15.223 5.79167H2.77703C3.94049 3.53972 6.29044 2.00002 9.00002 2.00002C11.7096 2.00002 14.0595 3.53972 15.223 5.79167ZM2.77703 12.2083H15.223C14.0595 14.4603 11.7096 16 9.00002 16C6.29044 16 3.94049 14.4603 2.77703 12.2083Z" fill="#FF1F00"/>
<path fill-rule="evenodd" clip-rule="evenodd" d="M3.74995 7.83334C3.8273 7.83334 3.90149 7.86407 3.95619 7.91877C4.01089 7.97347 4.04162 8.04765 4.04162 8.12501V11.3333H4.33328V11.625H3.16662V11.3333H3.45828V8.12501C3.45828 8.04765 3.48901 7.97347 3.54371 7.91877C3.59841 7.86407 3.6726 7.83334 3.74995 7.83334V7.83334ZM4.47912 7.97918H7.68744V10.507C7.68744 11.3794 6.96936 11.7708 6.08328 11.7708C5.1972 11.7708 4.47912 11.3794 4.47912 10.507V7.97918Z" fill="white"/>
<path d="M6.08328 7.83335C6.88869 7.83335 7.54161 7.50689 7.54161 7.10418C7.54161 6.70147 6.88869 6.37502 6.08328 6.37502C5.27786 6.37502 4.62495 6.70147 4.62495 7.10418C4.62495 7.50689 5.27786 7.83335 6.08328 7.83335Z" fill="#FF1F00"/>
<path d="M3.74995 8.27084C3.91103 8.27084 4.04161 8.14026 4.04161 7.97918C4.04161 7.81809 3.91103 7.68751 3.74995 7.68751C3.58887 7.68751 3.45828 7.81809 3.45828 7.97918C3.45828 8.14026 3.58887 8.27084 3.74995 8.27084Z" fill="#FF1F00"/>
<path fill-rule="evenodd" clip-rule="evenodd" d="M4.62495 8.12501H6.08328V9.58334H4.62495V8.12501Z" fill="#FF1F00"/>
<path fill-rule="evenodd" clip-rule="evenodd" d="M4.62495 9.58334H6.08328V10.6042C6.08328 10.7976 6.00645 10.983 5.86971 11.1198C5.73296 11.2565 5.5475 11.3333 5.35411 11.3333C5.16072 11.3333 4.97526 11.2565 4.83851 11.1198C4.70177 10.983 4.62495 10.7976 4.62495 10.6042V9.58334Z" fill="#FFD600"/>
<path fill-rule="evenodd" clip-rule="evenodd" d="M6.08328 9.58334H7.54161V10.6042C7.54161 10.7976 7.46479 10.983 7.32804 11.1198C7.1913 11.2565 7.00583 11.3333 6.81244 11.3333C6.61906 11.3333 6.43359 11.2565 6.29685 11.1198C6.1601 10.983 6.08328 10.7976 6.08328 10.6042V9.58334Z" fill="#FF1F00"/>
<path fill-rule="evenodd" clip-rule="evenodd" d="M8.41661 7.83334C8.49396 7.83334 8.56815 7.86407 8.62285 7.91877C8.67754 7.97347 8.70827 8.04765 8.70827 8.12501V11.3333H8.99994V11.625H7.83327V11.3333H8.12494V8.12501C8.12494 8.04765 8.15567 7.97347 8.21037 7.91877C8.26507 7.86407 8.33925 7.83334 8.41661 7.83334V7.83334Z" fill="white"/>
<path d="M8.4166 8.27084C8.57769 8.27084 8.70827 8.14026 8.70827 7.97918C8.70827 7.81809 8.57769 7.68751 8.4166 7.68751C8.25552 7.68751 8.12494 7.81809 8.12494 7.97918C8.12494 8.14026 8.25552 8.27084 8.4166 8.27084Z" fill="#FF1F00"/>
<path d="M6.81244 9.43751C7.05407 9.43751 7.24994 9.17634 7.24994 8.85418C7.24994 8.53201 7.05407 8.27084 6.81244 8.27084C6.57082 8.27084 6.37494 8.53201 6.37494 8.85418C6.37494 9.17634 6.57082 9.43751 6.81244 9.43751Z" fill="#FF1F00"/>
</svg>
