<svg width="18" height="18" viewBox="0 0 18 18" fill="none" xmlns="http://www.w3.org/2000/svg">
<path d="M9 16C12.866 16 16 12.866 16 9C16 5.13401 12.866 2 9 2C5.13401 2 2 5.13401 2 9C2 12.866 5.13401 16 9 16Z" fill="#0044C7"/>
<path fill-rule="evenodd" clip-rule="evenodd" d="M4.89484 3.32954L9.00006 7.43476L13.1053 3.32954C13.706 3.76522 14.2348 4.29403 14.6705 4.89478L10.5653 9.00001L14.6705 13.1052C14.2348 13.706 13.706 14.2348 13.1053 14.6705L9.00006 10.5653L4.89484 14.6705C4.29408 14.2348 3.76527 13.706 3.32959 13.1052L7.43481 9.00001L3.32959 4.89478C3.76527 4.29403 4.29408 3.76522 4.89484 3.32954Z" fill="white"/>
<path fill-rule="evenodd" clip-rule="evenodd" d="M14.5329 13.2886L10.9383 9.6222H9.7235L13.9662 13.9333C14.1678 13.7303 14.3571 13.515 14.5329 13.2886ZM4.7013 14.5249L9.46671 9.69997H8.22226L4.03757 13.937C4.24608 14.1465 4.46777 14.343 4.7013 14.5249ZM13.958 4.05847L9.97226 8.07636H8.84448L13.3607 3.52377C13.5699 3.6906 13.7693 3.86916 13.958 4.05847ZM3.47379 4.70288L6.59221 7.83331H7.8157L4.04718 4.05334C3.84306 4.25772 3.65151 4.47465 3.47379 4.70288Z" fill="#FF1F00"/>
<path fill-rule="evenodd" clip-rule="evenodd" d="M7.44444 2.17346V7.44444H2.17346C2.05994 7.94473 2 8.46537 2 9C2 9.53464 2.05994 10.0553 2.17346 10.5556H7.44444V15.8265C7.94473 15.9401 8.46537 16 9 16C9.53464 16 10.0553 15.9401 10.5556 15.8265V10.5556H15.8265C15.9401 10.0553 16 9.53464 16 9C16 8.46537 15.9401 7.94473 15.8265 7.44444H10.5556V2.17346C10.0553 2.05994 9.53464 2 9 2C8.46537 2 7.94473 2.05994 7.44444 2.17346Z" fill="white"/>
<path fill-rule="evenodd" clip-rule="evenodd" d="M7.83333 2.09678V7.83333H2.09678C2.03313 8.21274 2 8.6025 2 9C2 9.3975 2.03313 9.78726 2.09678 10.1667H7.83333V15.9032C8.21274 15.9669 8.6025 16 9 16C9.3975 16 9.78726 15.9669 10.1667 15.9032V10.1667H15.9032C15.9669 9.78726 16 9.3975 16 9C16 8.6025 15.9669 8.21274 15.9032 7.83333H10.1667V2.09678C9.78726 2.03313 9.3975 2 9 2C8.6025 2 8.21274 2.03313 7.83333 2.09678Z" fill="#FF1F00"/>
</svg>
